HIERARCHY
ROOT Hips
{
	OFFSET 0.000000 97.167313 0.000000
	CHANNELS 6 Xposition Yposition Zposition Xrotation Yrotation Zrotation
	JOINT Spine
	{
		OFFSET 0.000000 13.784798 0.064400
		CHANNELS 3 Xrotation Yrotation Zrotation
		JOINT Spine1
		{
			OFFSET 0.000000 12.037903 0.404700
			CHANNELS 3 Xrotation Yrotation Zrotation
			JOINT Spine2
			{
				OFFSET 0.000000 17.795601 0.420200
				CHANNELS 3 Xrotation Yrotation Zrotation
				JOINT Neck
				{
					OFFSET 0.000000 39.131302 11.954600
					CHANNELS 3 Xrotation Yrotation Zrotation
					JOINT Head
					{
						OFFSET 0.000000 14.456192 15.627699
						CHANNELS 3 Xrotation Yrotation Zrotation
						JOINT HeadTop_End
						{
							OFFSET 0.000000 15.703506 7.603401
							CHANNELS 3 Xrotation Yrotation Zrotation
							End Site
							{
								OFFSET 0.000000 17.447403 0.000000
							}
						}
					}
				}
				JOINT LeftShoulder
				{
					OFFSET 17.399500 24.608795 1.168800
					CHANNELS 3 Xrotation Yrotation Zrotation
					JOINT LeftArm
					{
						OFFSET 18.980635 5.765305 1.818600
						CHANNELS 3 Xrotation Yrotation Zrotation
						JOINT LeftForeArm
						{
							OFFSET 49.290169 0.000000 0.000000
							CHANNELS 3 Xrotation Yrotation Zrotation
							JOINT LeftHand
							{
								OFFSET 31.562012 0.000000 0.000000
								CHANNELS 3 Xrotation Yrotation Zrotation
								JOINT LeftHandThumb1
								{
									OFFSET 6.133995 -4.388519 7.076070
									CHANNELS 3 Xrotation Yrotation Zrotation
									JOINT LeftHandThumb2
									{
										OFFSET 6.037666 -3.485840 3.485847
										CHANNELS 3 Xrotation Yrotation Zrotation
										JOINT LeftHandThumb3
										{
											OFFSET 6.496506 -3.750763 3.750761
											CHANNELS 3 Xrotation Yrotation Zrotation
											JOINT LeftHandThumb4
											{
												OFFSET 5.616882 -3.242905 3.242910
												CHANNELS 3 Xrotation Yrotation Zrotation
												End Site
												{
													OFFSET -1.254608 7.132141 0.375429
												}
											}
										}
									}
								}
								JOINT LeftHandPinky1
								{
									OFFSET 18.920792 -0.453171 -11.426712
									CHANNELS 3 Xrotation Yrotation Zrotation
									JOINT LeftHandPinky2
									{
										OFFSET 4.919586 0.000000 0.000000
										CHANNELS 3 Xrotation Yrotation Zrotation
										JOINT LeftHandPinky3
										{
											OFFSET 5.233047 0.000000 0.000000
											CHANNELS 3 Xrotation Yrotation Zrotation
											JOINT LeftHandPinky4
											{
												OFFSET 5.571716 0.000000 0.000000
												CHANNELS 3 Xrotation Yrotation Zrotation
												End Site
												{
													OFFSET -3.459808 4.342407 -0.466164
												}
											}
										}
									}
								}
								JOINT LeftHandRing1
								{
									OFFSET 22.726120 -0.094986 -6.500475
									CHANNELS 3 Xrotation Yrotation Zrotation
									JOINT LeftHandRing2
									{
										OFFSET 6.408615 0.000000 0.000000
										CHANNELS 3 Xrotation Yrotation Zrotation
										JOINT LeftHandRing3
										{
											OFFSET 6.150223 0.000000 0.000000
											CHANNELS 3 Xrotation Yrotation Zrotation
											JOINT LeftHandRing4
											{
												OFFSET 6.145386 0.000000 0.000000
												CHANNELS 3 Xrotation Yrotation Zrotation
												End Site
												{
													OFFSET -3.671402 4.923981 -0.202372
												}
											}
										}
									}
								}
								JOINT LeftHandMiddle1
								{
									OFFSET 23.373947 0.000000 0.000001
									CHANNELS 3 Xrotation Yrotation Zrotation
									JOINT LeftHandMiddle2
									{
										OFFSET 6.996567 0.000000 0.000000
										CHANNELS 3 Xrotation Yrotation Zrotation
										JOINT LeftHandMiddle3
										{
											OFFSET 7.015945 0.000000 0.000000
											CHANNELS 3 Xrotation Yrotation Zrotation
											JOINT LeftHandMiddle4
											{
												OFFSET 7.721573 0.000000 0.000000
												CHANNELS 3 Xrotation Yrotation Zrotation
												End Site
												{
													OFFSET -4.651108 6.158463 0.251582
												}
											}
										}
									}
								}
								JOINT LeftHandIndex1
								{
									OFFSET 21.310577 -0.490082 6.209344
									CHANNELS 3 Xrotation Yrotation Zrotation
									JOINT LeftHandIndex2
									{
										OFFSET 7.536453 0.000000 0.000000
										CHANNELS 3 Xrotation Yrotation Zrotation
										JOINT LeftHandIndex3
										{
											OFFSET 7.512344 0.000000 0.000000
											CHANNELS 3 Xrotation Yrotation Zrotation
											JOINT LeftHandIndex4
											{
												OFFSET 10.212402 0.000000 0.000001
												CHANNELS 3 Xrotation Yrotation Zrotation
												End Site
												{
													OFFSET -5.180801 8.690506 1.388433
												}
											}
										}
									}
								}
							}
						}
					}
				}
				JOINT RightShoulder
				{
					OFFSET -17.399500 24.608795 1.168800
					CHANNELS 3 Xrotation Yrotation Zrotation
					JOINT RightArm
					{
						OFFSET -18.980635 5.765305 1.818600
						CHANNELS 3 Xrotation Yrotation Zrotation
						JOINT RightForeArm
						{
							OFFSET -49.290169 0.000000 0.000000
							CHANNELS 3 Xrotation Yrotation Zrotation
							JOINT RightHand
							{
								OFFSET -31.562012 0.000000 0.000000
								CHANNELS 3 Xrotation Yrotation Zrotation
								JOINT RightHandThumb1
								{
									OFFSET -6.133995 -4.388519 7.076070
									CHANNELS 3 Xrotation Yrotation Zrotation
									JOINT RightHandThumb2
									{
										OFFSET -6.037666 -3.485840 3.485847
										CHANNELS 3 Xrotation Yrotation Zrotation
										JOINT RightHandThumb3
										{
											OFFSET -6.496506 -3.750763 3.750761
											CHANNELS 3 Xrotation Yrotation Zrotation
											JOINT RightHandThumb4
											{
												OFFSET -5.616882 -3.242905 3.242910
												CHANNELS 3 Xrotation Yrotation Zrotation
												End Site
												{
													OFFSET 1.254608 7.132141 0.375429
												}
											}
										}
									}
								}
								JOINT RightHandIndex1
								{
									OFFSET -21.310577 -0.490082 6.209344
									CHANNELS 3 Xrotation Yrotation Zrotation
									JOINT RightHandIndex2
									{
										OFFSET -7.536453 0.000000 0.000000
										CHANNELS 3 Xrotation Yrotation Zrotation
										JOINT RightHandIndex3
										{
											OFFSET -7.512344 0.000000 0.000000
											CHANNELS 3 Xrotation Yrotation Zrotation
											JOINT RightHandIndex4
											{
												OFFSET -10.212402 0.000000 0.000001
												CHANNELS 3 Xrotation Yrotation Zrotation
												End Site
												{
													OFFSET 5.180801 8.690506 1.388433
												}
											}
										}
									}
								}
								JOINT RightHandMiddle1
								{
									OFFSET -23.373947 0.000000 0.000001
									CHANNELS 3 Xrotation Yrotation Zrotation
									JOINT RightHandMiddle2
									{
										OFFSET -6.996567 0.000000 0.000000
										CHANNELS 3 Xrotation Yrotation Zrotation
										JOINT RightHandMiddle3
										{
											OFFSET -7.015945 0.000000 0.000000
											CHANNELS 3 Xrotation Yrotation Zrotation
											JOINT RightHandMiddle4
											{
												OFFSET -7.721573 0.000000 0.000000
												CHANNELS 3 Xrotation Yrotation Zrotation
												End Site
												{
													OFFSET 4.651108 6.158463 0.251582
												}
											}
										}
									}
								}
								JOINT RightHandRing1
								{
									OFFSET -22.726120 -0.094986 -6.500475
									CHANNELS 3 Xrotation Yrotation Zrotation
									JOINT RightHandRing2
									{
										OFFSET -6.408615 0.000000 0.000000
										CHANNELS 3 Xrotation Yrotation Zrotation
										JOINT RightHandRing3
										{
											OFFSET -6.150223 0.000000 0.000000
											CHANNELS 3 Xrotation Yrotation Zrotation
											JOINT RightHandRing4
											{
												OFFSET -6.145386 0.000000 0.000000
												CHANNELS 3 Xrotation Yrotation Zrotation
												End Site
												{
													OFFSET 3.671402 4.923981 -0.202372
												}
											}
										}
									}
								}
								JOINT RightHandPinky1
								{
									OFFSET -18.920792 -0.453171 -11.426712
									CHANNELS 3 Xrotation Yrotation Zrotation
									JOINT RightHandPinky2
									{
										OFFSET -4.919586 0.000000 0.000000
										CHANNELS 3 Xrotation Yrotation Zrotation
										JOINT RightHandPinky3
										{
											OFFSET -5.233047 0.000000 0.000000
											CHANNELS 3 Xrotation Yrotation Zrotation
											JOINT RightHandPinky4
											{
												OFFSET -5.571716 0.000000 0.000000
												CHANNELS 3 Xrotation Yrotation Zrotation
												End Site
												{
													OFFSET 3.459808 4.342407 -0.466164
												}
											}
										}
									}
								}
							}
						}
					}
				}
			}
		}
	}
	JOINT LeftUpLeg
	{
		OFFSET 19.899099 -7.885101 -3.429500
		CHANNELS 3 Xrotation Yrotation Zrotation
		JOINT LeftLeg
		{
			OFFSET 1.745560 -36.997807 10.304700
			CHANNELS 3 Xrotation Yrotation Zrotation
			JOINT LeftFoot
			{
				OFFSET -1.745558 -29.803308 -13.615400
				CHANNELS 3 Xrotation Yrotation Zrotation
				JOINT LeftToeBase
				{
					OFFSET 1.181900 -18.539904 15.226099
					CHANNELS 3 Xrotation Yrotation Zrotation
					JOINT LeftToe_End
					{
						OFFSET -0.863701 1.402801 16.534700
						CHANNELS 3 Xrotation Yrotation Zrotation
						End Site
						{
							OFFSET 0.000000 16.616566 0.000000
						}
					}
				}
			}
		}
	}
	JOINT RightUpLeg
	{
		OFFSET -19.899099 -7.885101 -3.429500
		CHANNELS 3 Xrotation Yrotation Zrotation
		JOINT RightLeg
		{
			OFFSET -1.745560 -36.997807 10.304700
			CHANNELS 3 Xrotation Yrotation Zrotation
			JOINT RightFoot
			{
				OFFSET 1.745558 -29.803308 -13.615400
				CHANNELS 3 Xrotation Yrotation Zrotation
				JOINT RightToeBase
				{
					OFFSET -1.181900 -18.539904 15.226099
					CHANNELS 3 Xrotation Yrotation Zrotation
					JOINT RightToe_End
					{
						OFFSET 0.863701 1.402801 16.534700
						CHANNELS 3 Xrotation Yrotation Zrotation
						End Site
						{
							OFFSET 0.000000 16.616566 0.000000
						}
					}
				}
			}
		}
	}
}
MOTION
Frames: 4
Frame Time: 0.033333
0.579408 50.562935 20.949289 0.146165 0.050881 0.848533 10.430281 0.145719 -1.477581 -0.199260 0.213326 -0.355463 -0.199581 0.248527 -0.300880 -1.001765 -1.284342 0.469464 -8.883498 -4.327064 -5.321560 0.000000 0.000000 -0.000000 0.823521 -15.262027 -7.868752 4.746711 -21.216441 -54.862234 0.000055 -62.197485 0.000050 31.062966 4.315235 41.770220 6.610616 1.798243 20.801497 2.716407 20.172580 -24.389168 -5.537314 29.849522 5.070902 -0.000001 -0.000003 -0.000003 2.041312 10.867566 -13.918931 0.168513 1.396433 -13.761324 0.107171 1.116565 -10.963886 -0.000000 0.000003 -0.000000 1.797281 9.807941 -14.184127 0.205917 1.541083 -15.220190 0.265328 1.744717 -17.292057 -0.000001 0.000001 0.000002 1.299137 7.334319 -16.511076 0.329942 1.940096 -19.302238 0.233120 1.637754 -16.201255 -0.000000 0.000001 0.000006 -0.235306 2.798394 -26.913105 0.396819 2.121279 -21.189291 0.083133 0.984454 -9.653127 -0.000002 0.000005 0.000002 3.171093 -4.378723 8.782885 -3.950251 37.253378 63.733636 -0.000010 55.137925 0.000002 43.537323 4.741032 -36.277938 -9.383512 -1.613334 -17.604707 3.557096 -24.337033 34.656848 -6.608515 -37.497312 -11.176200 0.000001 -0.000004 0.000002 2.957836 1.012888 13.529987 0.472459 -2.045701 26.006741 0.059753 -0.744399 9.177799 -0.000000 -0.000001 -0.000001 0.105538 -3.664963 2.525397 0.584987 -2.261669 29.000433 0.020453 -0.436577 5.367125 -0.000000 -0.000000 -0.000004 0.456446 -7.644266 4.306129 0.107470 -0.995722 12.318835 0.072400 -0.818801 10.104471 0.000001 -0.000000 0.000000 -11.162312 -10.227893 7.169819 0.029117 -0.520510 6.403080 0.028651 -0.516320 6.351263 -0.000001 -0.000001 0.000004 -86.375440 -12.021846 20.549176 80.423237 -2.940425 -4.287891 8.678729 -5.930164 -9.537074 -0.103120 -0.000002 0.000001 -0.000000 -0.000001 0.000000 -88.134855 13.645655 -16.491647 81.376431 3.363456 2.592214 9.659504 -0.967629 10.698279 -0.191624 -0.000001 -0.000002 0.000000 -0.000000 0.000000 
0.547837 50.704735 20.771168 -0.945934 0.024176 1.025363 10.005518 0.090500 -1.461796 0.725639 0.214210 -0.373780 0.725456 0.243679 -0.324467 -0.762813 -1.232361 0.475810 -10.021619 -4.167224 -4.923148 0.000000 0.000000 -0.000000 0.826460 -15.596127 -7.591024 4.311419 -21.404807 -54.424532 0.000025 -61.028464 -0.000007 30.034258 3.625656 41.138540 7.885283 2.233422 19.264171 2.504307 19.449814 -24.630658 -5.962769 29.260640 5.446059 -0.000001 0.000001 0.000001 1.890266 10.582454 -13.955703 0.211705 1.562202 -15.434163 0.086496 1.004100 -9.847695 -0.000001 0.000001 0.000001 1.710808 9.604737 -13.877205 0.255214 1.711919 -16.956752 0.228477 1.621708 -16.037933 0.000001 0.000002 0.000000 1.220489 7.219242 -15.791312 0.371815 2.055587 -20.502691 0.216938 1.581047 -15.625091 -0.000002 -0.000000 0.000001 -0.193285 2.667261 -25.774448 0.428910 2.202193 -22.039764 0.066283 0.879698 -8.617517 -0.000003 -0.000000 -0.000001 3.082950 -3.979637 9.435382 -3.605002 37.648122 61.051004 0.000039 54.404140 -0.000026 33.528982 7.527261 -34.246917 -8.715436 -0.941075 -14.200569 3.359626 -24.235089 33.142383 -6.867603 -36.346677 -11.103065 0.000001 -0.000001 -0.000000 2.898444 1.098332 12.501935 0.483197 -2.067532 26.305741 0.048723 -0.672620 8.286232 -0.000003 -0.000003 -0.000002 0.095134 -3.659509 2.035542 0.649227 -2.373783 30.588777 0.017863 -0.408047 5.015273 -0.000000 0.000001 -0.000006 0.434630 -7.535064 4.156219 0.135431 -1.116093 13.836354 0.071292 -0.812658 10.027608 0.000002 0.000000 -0.000005 -11.204492 -10.339620 7.757588 0.040898 -0.616518 7.590716 0.028746 -0.517188 6.361926 -0.000000 -0.000000 0.000002 -85.107572 -11.680514 20.563140 80.235427 -2.935080 -4.259984 8.659100 -5.926956 -9.469070 -0.103120 -0.000003 0.000001 0.000000 0.000000 -0.000000 -87.132115 13.497297 -16.580257 81.316469 3.477255 2.531438 9.726225 -0.964503 10.437490 -0.191624 0.000000 -0.000002 0.000000 -0.000000 -0.000000 
0.529849 50.864700 20.588453 -1.969119 0.017647 1.192393 9.603911 0.047238 -1.438829 1.779249 0.233350 -0.404045 1.779271 0.256849 -0.359268 -0.628161 -1.187003 0.506022 -11.748160 -4.004592 -4.563502 0.000000 -0.000000 0.000000 0.840023 -16.432657 -7.434409 4.228854 -20.773416 -53.540412 -0.000037 -62.061373 -0.000053 25.443462 1.474792 39.587035 9.254216 2.654874 17.592257 2.276200 18.673717 -24.895445 -6.416416 28.623086 5.839659 -0.000001 0.000001 -0.000001 1.727482 10.275986 -13.996437 0.263481 1.738820 -17.231657 0.066737 0.882656 -8.646815 0.000000 0.000002 0.000001 1.620195 9.384179 -13.550655 0.313824 1.893430 -18.819941 0.191867 1.488481 -14.688783 -0.000002 -0.000002 0.000007 1.138361 7.094247 -15.017235 0.419543 2.178918 -21.794493 0.200169 1.519812 -15.005265 0.000003 -0.000002 0.000008 -0.144947 2.528616 -24.549226 0.464768 2.288703 -22.954925 0.050287 0.766657 -7.503332 -0.000001 -0.000001 0.000001 2.963397 -3.463359 9.992463 -3.235634 37.560228 58.020845 0.000031 54.684308 -0.000020 23.882325 8.226111 -31.111799 -7.966231 -0.163566 -10.583630 3.161949 -24.124167 31.519312 -7.147133 -35.109771 -11.015371 -0.000001 -0.000000 -0.000000 2.837372 1.193587 11.396090 0.494870 -2.090980 26.627475 0.038099 -0.595227 7.326975 -0.000000 -0.000001 0.000001 0.083669 -3.653276 1.508622 0.721663 -2.492139 32.294746 0.015276 -0.377307 4.636714 -0.000001 0.000004 -0.000001 0.411873 -7.416715 3.996707 0.168983 -1.244406 15.465242 0.070138 -0.806002 9.944891 0.000001 -0.000004 0.000003 -11.249232 -10.461763 8.389825 0.055795 -0.719534 8.868577 0.028850 -0.518125 6.373410 -0.000003 0.000002 0.000004 -83.912405 -11.314453 20.522207 80.001596 -2.897495 -4.219737 8.675635 -5.930719 -9.362297 -0.103120 -0.000003 0.000001 -0.000000 0.000001 -0.000000 -86.137237 13.361611 -16.690076 81.213995 3.570139 2.469870 9.789454 -0.960180 10.211503 -0.191624 -0.000000 -0.000002 0.000000 -0.000000 0.000000 
0.523329 51.013176 20.406902 -2.865291 0.010254 1.355799 9.225553 0.007054 -1.411729 2.964740 0.259188 -0.452701 2.964964 0.276317 -0.411956 -0.572634 -1.149118 0.528647 -14.242114 -3.874602 -4.264388 0.000000 0.000000 -0.000000 0.854122 -17.454157 -7.464715 4.197679 -19.595213 -52.005890 0.000099 -65.953468 0.000075 17.809045 -2.563149 37.857481 10.715940 3.055988 15.775360 2.032307 17.843330 -25.185042 -6.900326 27.935646 6.249937 0.000001 0.000000 0.000001 1.552659 9.947631 -14.041561 0.325131 1.926265 -19.159389 0.048356 0.752072 -7.359424 -0.000001 -0.000002 -0.000004 1.525836 9.146249 -13.202776 0.383164 2.085689 -20.816801 0.156094 1.344762 -13.242539 0.000001 -0.000001 0.000003 1.053197 6.958942 -14.187713 0.473777 2.309869 -23.179651 0.182922 1.453970 -14.340742 0.000000 -0.000002 0.000004 -0.089649 2.382782 -23.235552 0.504746 2.380801 -23.936243 0.035555 0.645167 -6.308861 0.000002 -0.000002 0.000001 2.803470 -2.696868 10.489717 -3.040764 36.501586 54.362507 0.000011 57.446249 0.000022 15.054587 6.179823 -25.865037 -7.107841 0.734821 -6.760828 2.967926 -24.003679 29.784030 -7.447817 -33.785278 -10.910056 0.000000 -0.000001 0.000002 2.775297 1.299373 10.210806 0.507524 -2.116015 26.972484 0.028185 -0.512042 6.298520 -0.000003 -0.000001 -0.000001 0.071076 -3.646284 0.943779 0.803181 -2.616520 34.123810 0.012712 -0.344346 4.230840 -0.000001 0.000004 -0.000006 0.388238 -7.289128 3.826988 0.208977 -1.380779 17.210948 0.068894 -0.798905 9.856196 -0.000002 0.000003 -0.000005 -11.296438 -10.594925 9.067564 0.074326 -0.829576 10.238613 0.028963 -0.519113 6.385746 -0.000001 0.000001 0.000004 -82.845379 -10.968766 20.464490 79.761645 -2.854505 -4.191867 8.703167 -5.923161 -9.280080 -0.103120 -0.000004 0.000001 -0.000000 -0.000000 0.000000 -85.254763 13.259982 -16.812728 81.090588 3.673641 2.415334 9.869029 -0.961200 10.035059 -0.191624 0.000001 -0.000002 -0.000000 -0.000000 0.000000 
